<svg width="24" height="24" viewBox="0 0 24 24" fill="none" xmlns="http://www.w3.org/2000/svg">
<path d="M14.375 11.25C14.8723 11.25 15.3492 11.0525 15.7008 10.7008C16.0525 10.3492 16.25 9.87228 16.25 9.375C16.25 8.87772 16.0525 8.40081 15.7008 8.04917C15.3492 7.69754 14.8723 7.5 14.375 7.5C13.8777 7.5 13.4008 7.69754 13.0492 8.04917C12.6975 8.40081 12.5 8.87772 12.5 9.375C12.5 9.87228 12.6975 10.3492 13.0492 10.7008C13.4008 11.0525 13.8777 11.25 14.375 11.25Z" fill="#F7F7F7"/>
<path d="M14.375 20.625C14.7065 20.625 15.0245 20.4933 15.2589 20.2589C15.4933 20.0245 15.625 19.7065 15.625 19.375C15.625 19.0435 15.4933 18.7255 15.2589 18.4911C15.0245 18.2567 14.7065 18.125 14.375 18.125C14.0435 18.125 13.7255 18.2567 13.4911 18.4911C13.2567 18.7255 13.125 19.0435 13.125 19.375C13.125 19.7065 13.2567 20.0245 13.4911 20.2589C13.7255 20.4933 14.0435 20.625 14.375 20.625Z" fill="#F7F7F7"/>
<path d="M14.375 16.25C14.8723 16.25 15.3492 16.0525 15.7008 15.7008C16.0525 15.3492 16.25 14.8723 16.25 14.375C16.25 13.8777 16.0525 13.4008 15.7008 13.0492C15.3492 12.6975 14.8723 12.5 14.375 12.5C13.8777 12.5 13.4008 12.6975 13.0492 13.0492C12.6975 13.4008 12.5 13.8777 12.5 14.375C12.5 14.8723 12.6975 15.3492 13.0492 15.7008C13.4008 16.0525 13.8777 16.25 14.375 16.25Z" fill="#F7F7F7"/>
<path d="M14.375 5.625C14.7065 5.625 15.0245 5.4933 15.2589 5.25888C15.4933 5.02446 15.625 4.70652 15.625 4.375C15.625 4.04348 15.4933 3.72554 15.2589 3.49112C15.0245 3.2567 14.7065 3.125 14.375 3.125C14.0435 3.125 13.7255 3.2567 13.4911 3.49112C13.2567 3.72554 13.125 4.04348 13.125 4.375C13.125 4.70652 13.2567 5.02446 13.4911 5.25888C13.7255 5.4933 14.0435 5.625 14.375 5.625Z" fill="#F7F7F7"/>
<path d="M0.625 8.75C0.275 8.75 0 9.025 0 9.375C0 9.725 0.275 10 0.625 10C0.975 10 1.25 9.725 1.25 9.375C1.25 9.025 0.975 8.75 0.625 8.75ZM15 0.625C15 0.275 14.725 0 14.375 0C14.025 0 13.75 0.275 13.75 0.625C13.75 0.975 14.025 1.25 14.375 1.25C14.725 1.25 15 0.975 15 0.625ZM23.125 15C23.475 15 23.75 14.725 23.75 14.375C23.75 14.025 23.475 13.75 23.125 13.75C22.775 13.75 22.5 14.025 22.5 14.375C22.5 14.725 22.775 15 23.125 15Z" fill="#F7F7F7"/>
<path d="M19.375 20.625C19.7065 20.625 20.0245 20.4933 20.2589 20.2589C20.4933 20.0245 20.625 19.7065 20.625 19.375C20.625 19.0435 20.4933 18.7255 20.2589 18.4911C20.0245 18.2567 19.7065 18.125 19.375 18.125C19.0435 18.125 18.7255 18.2567 18.4911 18.4911C18.2567 18.7255 18.125 19.0435 18.125 19.375C18.125 19.7065 18.2567 20.0245 18.4911 20.2589C18.7255 20.4933 19.0435 20.625 19.375 20.625Z" fill="#F7F7F7"/>
<path d="M13.75 23.125C13.75 23.475 14.025 23.75 14.375 23.75C14.725 23.75 15 23.475 15 23.125C15 22.775 14.725 22.5 14.375 22.5C14.025 22.5 13.75 22.775 13.75 23.125ZM23.125 10C23.475 10 23.75 9.725 23.75 9.375C23.75 9.025 23.475 8.75 23.125 8.75C22.775 8.75 22.5 9.025 22.5 9.375C22.5 9.725 22.775 10 23.125 10Z" fill="#F7F7F7"/>
<path d="M19.375 15.625C19.7065 15.625 20.0245 15.4933 20.2589 15.2589C20.4933 15.0245 20.625 14.7065 20.625 14.375C20.625 14.0435 20.4933 13.7255 20.2589 13.4911C20.0245 13.2567 19.7065 13.125 19.375 13.125C19.0435 13.125 18.7255 13.2567 18.4911 13.4911C18.2567 13.7255 18.125 14.0435 18.125 14.375C18.125 14.7065 18.2567 15.0245 18.4911 15.2589C18.7255 15.4933 19.0435 15.625 19.375 15.625Z" fill="#F7F7F7"/>
<path d="M19.375 5.625C19.7065 5.625 20.0245 5.4933 20.2589 5.25888C20.4933 5.02446 20.625 4.70652 20.625 4.375C20.625 4.04348 20.4933 3.72554 20.2589 3.49112C20.0245 3.2567 19.7065 3.125 19.375 3.125C19.0435 3.125 18.7255 3.2567 18.4911 3.49112C18.2567 3.72554 18.125 4.04348 18.125 4.375C18.125 4.70652 18.2567 5.02446 18.4911 5.25888C18.7255 5.4933 19.0435 5.625 19.375 5.625Z" fill="#F7F7F7"/>
<path d="M4.375 20.625C4.70652 20.625 5.02446 20.4933 5.25888 20.2589C5.4933 20.0245 5.625 19.7065 5.625 19.375C5.625 19.0435 5.4933 18.7255 5.25888 18.4911C5.02446 18.2567 4.70652 18.125 4.375 18.125C4.04348 18.125 3.72554 18.2567 3.49112 18.4911C3.2567 18.7255 3.125 19.0435 3.125 19.375C3.125 19.7065 3.2567 20.0245 3.49112 20.2589C3.72554 20.4933 4.04348 20.625 4.375 20.625Z" fill="#F7F7F7"/>
<path d="M4.375 15.625C4.70652 15.625 5.02446 15.4933 5.25888 15.2589C5.4933 15.0245 5.625 14.7065 5.625 14.375C5.625 14.0435 5.4933 13.7255 5.25888 13.4911C5.02446 13.2567 4.70652 13.125 4.375 13.125C4.04348 13.125 3.72554 13.2567 3.49112 13.4911C3.2567 13.7255 3.125 14.0435 3.125 14.375C3.125 14.7065 3.2567 15.0245 3.49112 15.2589C3.72554 15.4933 4.04348 15.625 4.375 15.625Z" fill="#F7F7F7"/>
<path d="M1.25 14.375C1.25 14.025 0.975 13.75 0.625 13.75C0.275 13.75 0 14.025 0 14.375C0 14.725 0.275 15 0.625 15C0.975 15 1.25 14.725 1.25 14.375Z" fill="#F7F7F7"/>
<path d="M9.375 5.625C9.70652 5.625 10.0245 5.4933 10.2589 5.25888C10.4933 5.02446 10.625 4.70652 10.625 4.375C10.625 4.04348 10.4933 3.72554 10.2589 3.49112C10.0245 3.2567 9.70652 3.125 9.375 3.125C9.04348 3.125 8.72554 3.2567 8.49112 3.49112C8.2567 3.72554 8.125 4.04348 8.125 4.375C8.125 4.70652 8.2567 5.02446 8.49112 5.25888C8.72554 5.4933 9.04348 5.625 9.375 5.625Z" fill="#F7F7F7"/>
<path d="M4.375 10.625C4.70652 10.625 5.02446 10.4933 5.25888 10.2589C5.4933 10.0245 5.625 9.70652 5.625 9.375C5.625 9.04348 5.4933 8.72554 5.25888 8.49112C5.02446 8.2567 4.70652 8.125 4.375 8.125C4.04348 8.125 3.72554 8.2567 3.49112 8.49112C3.2567 8.72554 3.125 9.04348 3.125 9.375C3.125 9.70652 3.2567 10.0245 3.49112 10.2589C3.72554 10.4933 4.04348 10.625 4.375 10.625Z" fill="#F7F7F7"/>
<path d="M4.375 5.625C4.70652 5.625 5.02446 5.4933 5.25888 5.25888C5.4933 5.02446 5.625 4.70652 5.625 4.375C5.625 4.04348 5.4933 3.72554 5.25888 3.49112C5.02446 3.2567 4.70652 3.125 4.375 3.125C4.04348 3.125 3.72554 3.2567 3.49112 3.49112C3.2567 3.72554 3.125 4.04348 3.125 4.375C3.125 4.70652 3.2567 5.02446 3.49112 5.25888C3.72554 5.4933 4.04348 5.625 4.375 5.625Z" fill="#F7F7F7"/>
<path d="M8.75 23.125C8.75 23.475 9.025 23.75 9.375 23.75C9.725 23.75 10 23.475 10 23.125C10 22.775 9.725 22.5 9.375 22.5C9.025 22.5 8.75 22.775 8.75 23.125Z" fill="#F7F7F7"/>
<path d="M9.375 20.625C9.70652 20.625 10.0245 20.4933 10.2589 20.2589C10.4933 20.0245 10.625 19.7065 10.625 19.375C10.625 19.0435 10.4933 18.7255 10.2589 18.4911C10.0245 18.2567 9.70652 18.125 9.375 18.125C9.04348 18.125 8.72554 18.2567 8.49112 18.4911C8.2567 18.7255 8.125 19.0435 8.125 19.375C8.125 19.7065 8.2567 20.0245 8.49112 20.2589C8.72554 20.4933 9.04348 20.625 9.375 20.625Z" fill="#F7F7F7"/>
<path d="M10 0.625C10 0.275 9.725 0 9.375 0C9.025 0 8.75 0.275 8.75 0.625C8.75 0.975 9.025 1.25 9.375 1.25C9.725 1.25 10 0.975 10 0.625Z" fill="#F7F7F7"/>
<path d="M9.375 16.25C9.87228 16.25 10.3492 16.0525 10.7008 15.7008C11.0525 15.3492 11.25 14.8723 11.25 14.375C11.25 13.8777 11.0525 13.4008 10.7008 13.0492C10.3492 12.6975 9.87228 12.5 9.375 12.5C8.87772 12.5 8.40081 12.6975 8.04917 13.0492C7.69754 13.4008 7.5 13.8777 7.5 14.375C7.5 14.8723 7.69754 15.3492 8.04917 15.7008C8.40081 16.0525 8.87772 16.25 9.375 16.25Z" fill="#F7F7F7"/>
<path d="M9.375 11.25C9.87228 11.25 10.3492 11.0525 10.7008 10.7008C11.0525 10.3492 11.25 9.87228 11.25 9.375C11.25 8.87772 11.0525 8.40081 10.7008 8.04917C10.3492 7.69754 9.87228 7.5 9.375 7.5C8.87772 7.5 8.40081 7.69754 8.04917 8.04917C7.69754 8.40081 7.5 8.87772 7.5 9.375C7.5 9.87228 7.69754 10.3492 8.04917 10.7008C8.40081 11.0525 8.87772 11.25 9.375 11.25Z" fill="#F7F7F7"/>
<path d="M19.375 10.625C19.7065 10.625 20.0245 10.4933 20.2589 10.2589C20.4933 10.0245 20.625 9.70652 20.625 9.375C20.625 9.04348 20.4933 8.72554 20.2589 8.49112C20.0245 8.2567 19.7065 8.125 19.375 8.125C19.0435 8.125 18.7255 8.2567 18.4911 8.49112C18.2567 8.72554 18.125 9.04348 18.125 9.375C18.125 9.70652 18.2567 10.0245 18.4911 10.2589C18.7255 10.4933 19.0435 10.625 19.375 10.625Z" fill="#F7F7F7"/>
</svg>
