<svg width="22" height="17" viewBox="0 0 22 17" fill="none" xmlns="http://www.w3.org/2000/svg">
<path d="M20 0.5C18.89 0.15 17.67 0 16.5 0C14.55 0 12.45 0.4 11 1.5C9.55 0.4 7.45 0 5.5 0C3.55 0 1.45 0.4 0 1.5V16.15C0 16.4 0.25 16.65 0.5 16.65C0.6 16.65 0.65 16.6 0.75 16.6C2.1 15.95 4.05 15.5 5.5 15.5C7.45 15.5 9.55 15.9 11 17C12.35 16.15 14.8 15.5 16.5 15.5C18.15 15.5 19.85 15.8 21.25 16.55C21.35 16.6 21.4 16.6 21.5 16.6C21.75 16.6 22 16.35 22 16.1V1.5C21.4 1.05 20.75 0.75 20 0.5ZM2 14V2.5C3.1 2.15 4.3 2 5.5 2C6.84 2 8.63 2.41 10 2.99V14.49C8.63 13.91 6.84 13.5 5.5 13.5C4.3 13.5 3.1 13.65 2 14ZM20 14C18.9 13.65 17.7 13.5 16.5 13.5C15.16 13.5 13.37 13.91 12 14.49V2.99C13.37 2.4 15.16 2 16.5 2C17.7 2 18.9 2.15 20 2.5V14Z" fill="white"/>
<path opacity="0.3" d="M10 2.99C8.63 2.41 6.84 2 5.5 2C4.3 2 3.1 2.15 2 2.5V14C3.1 13.65 4.3 13.5 5.5 13.5C6.84 13.5 8.63 13.91 10 14.49V2.99Z" fill="white"/>
<path d="M16.5 6C17.38 6 18.23 6.09 19 6.26V4.74C18.21 4.59 17.36 4.5 16.5 4.5C15.22 4.5 14.04 4.66 13 4.97V6.54C13.99 6.19 15.18 6 16.5 6Z" fill="white"/>
<path d="M16.5 8.65991C17.38 8.65991 18.23 8.74991 19 8.91991V7.39991C18.21 7.24991 17.36 7.15991 16.5 7.15991C15.22 7.15991 14.04 7.31991 13 7.62991V9.19991C13.99 8.85991 15.18 8.65991 16.5 8.65991Z" fill="white"/>
<path d="M16.5 11.3301C17.38 11.3301 18.23 11.4201 19 11.5901V10.0701C18.21 9.92008 17.36 9.83008 16.5 9.83008C15.22 9.83008 14.04 9.99008 13 10.3001V11.8701C13.99 11.5201 15.18 11.3301 16.5 11.3301Z" fill="white"/>
</svg>
