<svg width="20" height="20" viewBox="0 0 20 20" fill="none" xmlns="http://www.w3.org/2000/svg">
<path d="M7.85709 0H0.714281C0.319794 0 0 0.319792 0 0.714275V7.85703C0 8.25151 0.319794 8.5713 0.714281 8.5713H7.85709C8.25157 8.5713 8.57137 8.25151 8.57137 7.85703V0.714275C8.57137 0.319792 8.25157 0 7.85709 0Z" fill="#F7F7F7"/>
<path d="M19.2857 0H12.1429C11.7484 0 11.4286 0.319792 11.4286 0.714275V7.85703C11.4286 8.25151 11.7484 8.5713 12.1429 8.5713H19.2857C19.6802 8.5713 20 8.25151 20 7.85703V0.714275C20 0.319792 19.6802 0 19.2857 0Z" fill="#F7F7F7"/>
<path d="M7.85709 11.4287H0.714281C0.319794 11.4287 0 11.7485 0 12.143V19.2857C0 19.6802 0.319794 20 0.714281 20H7.85709C8.25157 20 8.57137 19.6802 8.57137 19.2857V12.143C8.57137 11.7485 8.25157 11.4287 7.85709 11.4287Z" fill="#F7F7F7"/>
<path d="M19.2857 11.4287H12.1429C11.7484 11.4287 11.4286 11.7485 11.4286 12.143V19.2857C11.4286 19.6802 11.7484 20 12.1429 20H19.2857C19.6802 20 20 19.6802 20 19.2857V12.143C20 11.7485 19.6802 11.4287 19.2857 11.4287Z" fill="#F7F7F7"/>
</svg>
