<svg width="22" height="22" viewBox="0 0 22 22" fill="none" xmlns="http://www.w3.org/2000/svg">
<path d="M21.7747 15.1834L20.2897 14.3447L12.1314 18.9537C11.7875 19.1479 11.3993 19.25 11.0044 19.25C10.6094 19.25 10.2212 19.1479 9.87731 18.9537L1.71898 14.3438L0.233976 15.1825C0.163002 15.2223 0.103917 15.2804 0.0627959 15.3506C0.0216746 15.4208 0 15.5008 0 15.5822C0 15.6636 0.0216746 15.7435 0.0627959 15.8137C0.103917 15.884 0.163002 15.942 0.233976 15.9818L10.7756 21.9402C10.8444 21.979 10.9221 21.9995 11.0011 21.9995C11.0802 21.9995 11.1578 21.979 11.2266 21.9402L21.7683 15.9818C21.8393 15.942 21.8984 15.884 21.9395 15.8137C21.9806 15.7435 22.0023 15.6636 22.0023 15.5822C22.0023 15.5008 21.9806 15.4208 21.9395 15.3506C21.8984 15.2804 21.8393 15.2223 21.7683 15.1825L21.7747 15.1834Z" fill="#F7F7F7"/>
<path d="M21.7747 10.5999L20.2897 9.76117L12.1314 14.3702C11.7875 14.5644 11.3993 14.6665 11.0044 14.6665C10.6094 14.6665 10.2212 14.5644 9.87731 14.3702L1.71898 9.76025L0.233976 10.599C0.163002 10.6388 0.103917 10.6969 0.0627959 10.7671C0.0216746 10.8374 0 10.9173 0 10.9987C0 11.0801 0.0216746 11.16 0.0627959 11.2302C0.103917 11.3005 0.163002 11.3585 0.233976 11.3983L10.7756 17.3567C10.8444 17.3955 10.9221 17.416 11.0011 17.416C11.0802 17.416 11.1578 17.3955 11.2266 17.3567L21.7683 11.3983C21.8393 11.3585 21.8984 11.3005 21.9395 11.2302C21.9806 11.16 22.0023 11.0801 22.0023 10.9987C22.0023 10.9173 21.9806 10.8374 21.9395 10.7671C21.8984 10.6969 21.8393 10.6388 21.7683 10.599L21.7747 10.5999Z" fill="#F7F7F7"/>
<path d="M21.7747 6.01671L11.2331 0.0583729C11.1641 0.0200886 11.0865 0 11.0076 0C10.9287 0 10.8511 0.0200886 10.7821 0.0583729L0.240393 6.01671C0.169418 6.05655 0.110334 6.11457 0.0692123 6.18481C0.0280909 6.25506 0.00641632 6.33498 0.00641632 6.41637C0.00641632 6.49777 0.0280909 6.57769 0.0692123 6.64793C0.110334 6.71817 0.169418 6.7762 0.240393 6.81604L10.7821 12.7744C10.8509 12.8133 10.9285 12.8337 11.0076 12.8337C11.0866 12.8337 11.1643 12.8133 11.2331 12.7744L21.7747 6.81604C21.8457 6.7762 21.9048 6.71817 21.9459 6.64793C21.987 6.57769 22.0087 6.49777 22.0087 6.41637C22.0087 6.33498 21.987 6.25506 21.9459 6.18481C21.9048 6.11457 21.8457 6.05655 21.7747 6.01671Z" fill="#F7F7F7"/>
</svg>
