<svg width="20" height="21" viewBox="0 0 20 21" fill="none" xmlns="http://www.w3.org/2000/svg">
<path d="M0 11.6667H2.16667V9.33333H0V11.6667ZM0 16.3333H2.16667V14H0V16.3333ZM2.16667 21V18.6667H0C0 19.2855 0.228273 19.879 0.634602 20.3166C1.04093 20.7542 1.59203 21 2.16667 21ZM0 7H2.16667V4.66667H0V7ZM13 21H15.1667V18.6667H13V21ZM17.3333 0H6.5C5.92536 0 5.37426 0.245833 4.96794 0.683417C4.56161 1.121 4.33333 1.71449 4.33333 2.33333V14C4.33333 14.6188 4.56161 15.2123 4.96794 15.6499C5.37426 16.0875 5.92536 16.3333 6.5 16.3333H17.3333C18.525 16.3333 19.5 15.2833 19.5 14V2.33333C19.5 1.05 18.525 0 17.3333 0ZM17.3333 14H6.5V2.33333H17.3333V14ZM8.66667 21H10.8333V18.6667H8.66667V21ZM4.33333 21H6.5V18.6667H4.33333V21Z" fill="#F7F7F7"/>
</svg>
